<?xml version="1.0" encoding="UTF-8" standalone="no"?>
<!DOCTYPE svg PUBLIC "-//W3C//DTD SVG 1.1//EN"
 "http://www.w3.org/Graphics/SVG/1.1/DTD/svg11.dtd">
<!-- Generated by graphviz version 2.44.0 (0)
 -->
<!-- Title: G Pages: 1 -->
<svg width="262pt" height="152pt"
 viewBox="0.00 0.00 261.70 152.00" xmlns="http://www.w3.org/2000/svg" xmlns:xlink="http://www.w3.org/1999/xlink">
<g id="graph0" class="graph" transform="scale(1 1) rotate(0) translate(4 148)">
<title>G</title>
<polygon fill="white" stroke="transparent" points="-4,4 -4,-148 257.7,-148 257.7,4 -4,4"/>
<!-- 0 -->
<g id="node1" class="node">
<title>0</title>
<ellipse fill="none" stroke="black" cx="162" cy="-126" rx="18" ry="18"/>
<text text-anchor="middle" x="162" y="-122.3" font-family="helvetica" font-size="14.00">0</text>
</g>
<!-- &#45;1 -->
<g id="node2" class="node">
<title>&#45;1</title>
<ellipse fill="#ffdddd" stroke="black" cx="234.85" cy="-72" rx="18.7" ry="18.7"/>
<text text-anchor="middle" x="234.85" y="-68.3" font-family="helvetica" font-size="14.00">&#45;1</text>
</g>
<!-- 0&#45;&gt;&#45;1 -->
<g id="edge1" class="edge">
<title>0&#45;&gt;&#45;1</title>
<path fill="none" stroke="black" d="M177,-115.33C186.77,-107.89 200.02,-97.79 211.27,-89.21"/>
<polygon fill="black" stroke="black" points="213.56,-91.86 219.39,-83.02 209.32,-86.3 213.56,-91.86"/>
</g>
<!-- 1 -->
<g id="node3" class="node">
<title>1</title>
<ellipse fill="none" stroke="black" cx="90" cy="-72" rx="18" ry="18"/>
<text text-anchor="middle" x="90" y="-68.3" font-family="helvetica" font-size="14.00">1</text>
</g>
<!-- 2 -->
<g id="node4" class="node">
<title>2</title>
<ellipse fill="none" stroke="black" cx="162" cy="-72" rx="18" ry="18"/>
<text text-anchor="middle" x="162" y="-68.3" font-family="helvetica" font-size="14.00">2</text>
</g>
<!-- 1&#45;&gt;2 -->
<g id="edge2" class="edge">
<title>1&#45;&gt;2</title>
<path fill="none" stroke="black" d="M108.3,-72C116.02,-72 125.29,-72 133.89,-72"/>
<polygon fill="black" stroke="black" points="133.9,-75.5 143.9,-72 133.9,-68.5 133.9,-75.5"/>
</g>
<!-- 2&#45;&gt;&#45;1 -->
<g id="edge3" class="edge">
<title>2&#45;&gt;&#45;1</title>
<path fill="none" stroke="black" d="M180.15,-72C187.84,-72 197.1,-72 205.76,-72"/>
<polygon fill="black" stroke="black" points="205.87,-75.5 215.87,-72 205.87,-68.5 205.87,-75.5"/>
</g>
<!-- 3 -->
<g id="node5" class="node">
<title>3</title>
<ellipse fill="none" stroke="black" cx="18" cy="-72" rx="18" ry="18"/>
<text text-anchor="middle" x="18" y="-68.3" font-family="helvetica" font-size="14.00">3</text>
</g>
<!-- 3&#45;&gt;1 -->
<g id="edge4" class="edge">
<title>3&#45;&gt;1</title>
<path fill="none" stroke="black" d="M36.3,-72C44.02,-72 53.29,-72 61.89,-72"/>
<polygon fill="black" stroke="black" points="61.9,-75.5 71.9,-72 61.9,-68.5 61.9,-75.5"/>
</g>
<!-- 4 -->
<g id="node6" class="node">
<title>4</title>
<ellipse fill="none" stroke="black" cx="162" cy="-18" rx="18" ry="18"/>
<text text-anchor="middle" x="162" y="-14.3" font-family="helvetica" font-size="14.00">4</text>
</g>
<!-- 4&#45;&gt;&#45;1 -->
<g id="edge5" class="edge">
<title>4&#45;&gt;&#45;1</title>
<path fill="none" stroke="black" d="M177,-28.67C186.77,-36.11 200.02,-46.21 211.27,-54.79"/>
<polygon fill="black" stroke="black" points="209.32,-57.7 219.39,-60.98 213.56,-52.14 209.32,-57.7"/>
</g>
<!-- 5 -->
<g id="node7" class="node">
<title>5</title>
<ellipse fill="none" stroke="black" cx="90" cy="-18" rx="18" ry="18"/>
<text text-anchor="middle" x="90" y="-14.3" font-family="helvetica" font-size="14.00">5</text>
</g>
<!-- 5&#45;&gt;4 -->
<g id="edge6" class="edge">
<title>5&#45;&gt;4</title>
<path fill="none" stroke="black" d="M108.3,-18C116.02,-18 125.29,-18 133.89,-18"/>
<polygon fill="black" stroke="black" points="133.9,-21.5 143.9,-18 133.9,-14.5 133.9,-21.5"/>
</g>
<!-- 6 -->
<g id="node8" class="node">
<title>6</title>
<ellipse fill="none" stroke="black" cx="18" cy="-18" rx="18" ry="18"/>
<text text-anchor="middle" x="18" y="-14.3" font-family="helvetica" font-size="14.00">6</text>
</g>
<!-- 6&#45;&gt;5 -->
<g id="edge7" class="edge">
<title>6&#45;&gt;5</title>
<path fill="none" stroke="black" d="M36.3,-18C44.02,-18 53.29,-18 61.89,-18"/>
<polygon fill="black" stroke="black" points="61.9,-21.5 71.9,-18 61.9,-14.5 61.9,-21.5"/>
</g>
</g>
</svg>
