<?xml version="1.0" encoding="UTF-8" standalone="no"?>
<!DOCTYPE svg PUBLIC "-//W3C//DTD SVG 1.1//EN"
 "http://www.w3.org/Graphics/SVG/1.1/DTD/svg11.dtd">
<!-- Generated by graphviz version 2.44.0 (0)
 -->
<!-- Title: G Pages: 1 -->
<svg width="267pt" height="266pt"
 viewBox="0.00 0.00 267.29 266.00" xmlns="http://www.w3.org/2000/svg" xmlns:xlink="http://www.w3.org/1999/xlink">
<g id="graph0" class="graph" transform="scale(1 1) rotate(0) translate(4 262)">
<title>G</title>
<polygon fill="white" stroke="transparent" points="-4,4 -4,-262 263.29,-262 263.29,4 -4,4"/>
<!-- 0 -->
<g id="node1" class="node">
<title>0</title>
<ellipse fill="none" stroke="black" cx="20.8" cy="-186" rx="18" ry="18"/>
<text text-anchor="middle" x="20.8" y="-182.3" font-family="helvetica" font-size="14.00">0</text>
</g>
<!-- 1 -->
<g id="node2" class="node">
<title>1</title>
<ellipse fill="none" stroke="black" cx="95.6" cy="-132" rx="18" ry="18"/>
<text text-anchor="middle" x="95.6" y="-128.3" font-family="helvetica" font-size="14.00">1</text>
</g>
<!-- 0&#45;&gt;1 -->
<g id="edge1" class="edge">
<title>0&#45;&gt;1</title>
<path fill="none" stroke="black" d="M35.83,-175.59C46.21,-167.89 60.54,-157.26 72.45,-148.43"/>
<polygon fill="black" stroke="black" points="74.66,-151.15 80.6,-142.38 70.49,-145.53 74.66,-151.15"/>
</g>
<!-- 2 -->
<g id="node3" class="node">
<title>2</title>
<ellipse fill="none" stroke="black" cx="167.6" cy="-130" rx="18" ry="18"/>
<text text-anchor="middle" x="167.6" y="-126.3" font-family="helvetica" font-size="14.00">2</text>
</g>
<!-- 1&#45;&gt;2 -->
<g id="edge2" class="edge">
<title>1&#45;&gt;2</title>
<path fill="none" stroke="black" d="M113.9,-131.51C121.61,-131.29 130.88,-131.02 139.48,-130.77"/>
<polygon fill="black" stroke="black" points="139.6,-134.27 149.49,-130.49 139.4,-127.28 139.6,-134.27"/>
</g>
<!-- &#45;1 -->
<g id="node4" class="node">
<title>&#45;1</title>
<ellipse fill="#ffdddd" stroke="black" cx="240.44" cy="-102" rx="18.7" ry="18.7"/>
<text text-anchor="middle" x="240.44" y="-98.3" font-family="helvetica" font-size="14.00">&#45;1</text>
</g>
<!-- 2&#45;&gt;&#45;1 -->
<g id="edge3" class="edge">
<title>2&#45;&gt;&#45;1</title>
<path fill="none" stroke="black" d="M184.67,-123.65C193.04,-120.34 203.47,-116.22 212.99,-112.46"/>
<polygon fill="black" stroke="black" points="214.43,-115.65 222.44,-108.72 211.86,-109.14 214.43,-115.65"/>
</g>
<!-- 3 -->
<g id="node5" class="node">
<title>3</title>
<ellipse fill="none" stroke="black" cx="20.8" cy="-132" rx="18" ry="18"/>
<text text-anchor="middle" x="20.8" y="-128.3" font-family="helvetica" font-size="14.00">3</text>
</g>
<!-- 3&#45;&gt;1 -->
<g id="edge4" class="edge">
<title>3&#45;&gt;1</title>
<path fill="none" stroke="black" d="M39.05,-132C47.48,-132 57.83,-132 67.3,-132"/>
<polygon fill="black" stroke="black" points="67.47,-135.5 77.47,-132 67.47,-128.5 67.47,-135.5"/>
</g>
<!-- 4 -->
<g id="node6" class="node">
<title>4</title>
<ellipse fill="none" stroke="black" cx="167.6" cy="-75" rx="18" ry="18"/>
<text text-anchor="middle" x="167.6" y="-71.3" font-family="helvetica" font-size="14.00">4</text>
</g>
<!-- 4&#45;&gt;&#45;1 -->
<g id="edge5" class="edge">
<title>4&#45;&gt;&#45;1</title>
<path fill="none" stroke="black" d="M184.67,-81.13C193.04,-84.31 203.47,-88.29 212.99,-91.92"/>
<polygon fill="black" stroke="black" points="211.85,-95.23 222.44,-95.52 214.35,-88.69 211.85,-95.23"/>
</g>
<!-- 5 -->
<g id="node7" class="node">
<title>5</title>
<ellipse fill="none" stroke="black" cx="95.6" cy="-75" rx="18" ry="18"/>
<text text-anchor="middle" x="95.6" y="-71.3" font-family="helvetica" font-size="14.00">5</text>
</g>
<!-- 5&#45;&gt;4 -->
<g id="edge6" class="edge">
<title>5&#45;&gt;4</title>
<path fill="none" stroke="black" d="M113.9,-75C121.61,-75 130.88,-75 139.48,-75"/>
<polygon fill="black" stroke="black" points="139.49,-78.5 149.49,-75 139.49,-71.5 139.49,-78.5"/>
</g>
<!-- 6 -->
<g id="node8" class="node">
<title>6</title>
<ellipse fill="none" stroke="black" cx="20.8" cy="-240" rx="18" ry="18"/>
<text text-anchor="middle" x="20.8" y="-236.3" font-family="helvetica" font-size="14.00">6</text>
</g>
<!-- 7 -->
<g id="node9" class="node">
<title>7</title>
<ellipse fill="none" stroke="black" cx="95.6" cy="-240" rx="18" ry="18"/>
<text text-anchor="middle" x="95.6" y="-236.3" font-family="helvetica" font-size="14.00">7</text>
</g>
<!-- 6&#45;&gt;7 -->
<g id="edge7" class="edge">
<title>6&#45;&gt;7</title>
<path fill="none" stroke="black" d="M37.95,-234.28C46.91,-233.26 58.26,-233 68.44,-233.49"/>
<polygon fill="black" stroke="black" points="68.24,-236.99 78.49,-234.29 68.79,-230.01 68.24,-236.99"/>
</g>
<!-- 7&#45;&gt;6 -->
<g id="edge8" class="edge">
<title>7&#45;&gt;6</title>
<path fill="none" stroke="black" d="M78.49,-245.71C69.54,-246.74 58.19,-247 48,-246.51"/>
<polygon fill="black" stroke="black" points="48.2,-243.01 37.95,-245.72 47.65,-249.99 48.2,-243.01"/>
</g>
<!-- 8 -->
<g id="node10" class="node">
<title>8</title>
<ellipse fill="none" stroke="black" cx="95.6" cy="-20" rx="18" ry="18"/>
<text text-anchor="middle" x="95.6" y="-16.3" font-family="helvetica" font-size="14.00">8</text>
</g>
<!-- 8&#45;&gt;4 -->
<g id="edge9" class="edge">
<title>8&#45;&gt;4</title>
<path fill="none" stroke="black" d="M110.43,-30.87C120.21,-38.55 133.52,-49.01 144.73,-57.82"/>
<polygon fill="black" stroke="black" points="142.77,-60.73 152.8,-64.16 147.09,-55.23 142.77,-60.73"/>
</g>
<!-- 9 -->
<g id="node11" class="node">
<title>9</title>
<ellipse fill="none" stroke="black" cx="20.8" cy="-18" rx="18" ry="18"/>
<text text-anchor="middle" x="20.8" y="-14.3" font-family="helvetica" font-size="14.00">9</text>
</g>
<!-- 9&#45;&gt;8 -->
<g id="edge10" class="edge">
<title>9&#45;&gt;8</title>
<path fill="none" stroke="black" d="M39.05,-18.47C47.48,-18.71 57.83,-18.99 67.3,-19.25"/>
<polygon fill="black" stroke="black" points="67.38,-22.75 77.47,-19.53 67.57,-15.76 67.38,-22.75"/>
</g>
<!-- 10 -->
<g id="node12" class="node">
<title>10</title>
<ellipse fill="none" stroke="black" cx="20.8" cy="-75" rx="20.6" ry="20.6"/>
<text text-anchor="middle" x="20.8" y="-71.3" font-family="helvetica" font-size="14.00">10</text>
</g>
<!-- 10&#45;&gt;5 -->
<g id="edge11" class="edge">
<title>10&#45;&gt;5</title>
<path fill="none" stroke="black" d="M41.69,-75C49.51,-75 58.61,-75 67.04,-75"/>
<polygon fill="black" stroke="black" points="67.21,-78.5 77.21,-75 67.21,-71.5 67.21,-78.5"/>
</g>
</g>
</svg>
