<?xml version="1.0" encoding="UTF-8" standalone="no"?>
<!DOCTYPE svg PUBLIC "-//W3C//DTD SVG 1.1//EN"
 "http://www.w3.org/Graphics/SVG/1.1/DTD/svg11.dtd">
<!-- Generated by graphviz version 2.44.0 (0)
 -->
<!-- Title: G Pages: 1 -->
<svg width="504pt" height="349pt"
 viewBox="0.00 0.00 503.98 348.80" xmlns="http://www.w3.org/2000/svg" xmlns:xlink="http://www.w3.org/1999/xlink">
<g id="graph0" class="graph" transform="scale(1 1) rotate(0) translate(4 344.8)">
<title>G</title>
<polygon fill="white" stroke="transparent" points="-4,4 -4,-344.8 499.98,-344.8 499.98,4 -4,4"/>
<!-- 0 -->
<g id="node1" class="node">
<title>0</title>
<ellipse fill="none" stroke="black" cx="18" cy="-69.8" rx="18" ry="18"/>
<text text-anchor="middle" x="18" y="-66.1" font-family="helvetica" font-size="14.00">0</text>
</g>
<!-- 6 -->
<g id="node2" class="node">
<title>6</title>
<ellipse fill="none" stroke="black" cx="90" cy="-118.8" rx="18" ry="18"/>
<text text-anchor="middle" x="90" y="-115.1" font-family="helvetica" font-size="14.00">6</text>
</g>
<!-- 0&#45;&gt;6 -->
<g id="edge1" class="edge">
<title>0&#45;&gt;6</title>
<path fill="none" stroke="black" d="M33.17,-79.71C42.75,-86.42 55.61,-95.42 66.57,-103.1"/>
<polygon fill="black" stroke="black" points="64.66,-106.03 74.86,-108.9 68.67,-100.3 64.66,-106.03"/>
</g>
<!-- 9 -->
<g id="node12" class="node">
<title>9</title>
<ellipse fill="none" stroke="black" cx="164.8" cy="-118.8" rx="18" ry="18"/>
<text text-anchor="middle" x="164.8" y="-115.1" font-family="helvetica" font-size="14.00">9</text>
</g>
<!-- 6&#45;&gt;9 -->
<g id="edge7" class="edge">
<title>6&#45;&gt;9</title>
<path fill="none" stroke="black" d="M108.25,-118.8C116.68,-118.8 127.03,-118.8 136.5,-118.8"/>
<polygon fill="black" stroke="black" points="136.67,-122.3 146.67,-118.8 136.67,-115.3 136.67,-122.3"/>
</g>
<!-- 1 -->
<g id="node3" class="node">
<title>1</title>
<ellipse fill="none" stroke="black" cx="242.39" cy="-190.8" rx="18" ry="18"/>
<text text-anchor="middle" x="242.39" y="-187.1" font-family="helvetica" font-size="14.00">1</text>
</g>
<!-- 12 -->
<g id="node4" class="node">
<title>12</title>
<ellipse fill="none" stroke="black" cx="319.99" cy="-205.8" rx="20.6" ry="20.6"/>
<text text-anchor="middle" x="319.99" y="-202.1" font-family="helvetica" font-size="14.00">12</text>
</g>
<!-- 1&#45;&gt;12 -->
<g id="edge2" class="edge">
<title>1&#45;&gt;12</title>
<path fill="none" stroke="black" d="M260.17,-194.13C268.76,-195.83 279.47,-197.96 289.39,-199.92"/>
<polygon fill="black" stroke="black" points="288.83,-203.38 299.32,-201.89 290.19,-196.51 288.83,-203.38"/>
</g>
<!-- &#45;1 -->
<g id="node9" class="node">
<title>&#45;1</title>
<ellipse fill="#ffdddd" stroke="black" cx="397.59" cy="-265.8" rx="18.7" ry="18.7"/>
<text text-anchor="middle" x="397.59" y="-262.1" font-family="helvetica" font-size="14.00">&#45;1</text>
</g>
<!-- 12&#45;&gt;&#45;1 -->
<g id="edge13" class="edge">
<title>12&#45;&gt;&#45;1</title>
<path fill="none" stroke="black" d="M337.02,-218.52C347.76,-227.05 362.06,-238.4 373.96,-247.84"/>
<polygon fill="black" stroke="black" points="372.1,-250.83 382.11,-254.31 376.46,-245.35 372.1,-250.83"/>
</g>
<!-- 2 -->
<g id="node5" class="node">
<title>2</title>
<ellipse fill="none" stroke="black" cx="18" cy="-255.8" rx="18" ry="18"/>
<text text-anchor="middle" x="18" y="-252.1" font-family="helvetica" font-size="14.00">2</text>
</g>
<!-- 7 -->
<g id="node6" class="node">
<title>7</title>
<ellipse fill="none" stroke="black" cx="90" cy="-227.8" rx="18" ry="18"/>
<text text-anchor="middle" x="90" y="-224.1" font-family="helvetica" font-size="14.00">7</text>
</g>
<!-- 2&#45;&gt;7 -->
<g id="edge3" class="edge">
<title>2&#45;&gt;7</title>
<path fill="none" stroke="black" d="M34.88,-249.44C43.27,-246.09 53.76,-241.89 63.27,-238.09"/>
<polygon fill="black" stroke="black" points="64.71,-241.28 72.69,-234.32 62.11,-234.79 64.71,-241.28"/>
</g>
<!-- 15 -->
<g id="node11" class="node">
<title>15</title>
<ellipse fill="none" stroke="black" cx="164.8" cy="-190.8" rx="20.6" ry="20.6"/>
<text text-anchor="middle" x="164.8" y="-187.1" font-family="helvetica" font-size="14.00">15</text>
</g>
<!-- 7&#45;&gt;15 -->
<g id="edge8" class="edge">
<title>7&#45;&gt;15</title>
<path fill="none" stroke="black" d="M106.44,-219.95C115.26,-215.47 126.57,-209.72 136.81,-204.51"/>
<polygon fill="black" stroke="black" points="138.49,-207.59 145.81,-199.94 135.31,-201.35 138.49,-207.59"/>
</g>
<!-- 3 -->
<g id="node7" class="node">
<title>3</title>
<ellipse fill="none" stroke="black" cx="18" cy="-201.8" rx="18" ry="18"/>
<text text-anchor="middle" x="18" y="-198.1" font-family="helvetica" font-size="14.00">3</text>
</g>
<!-- 3&#45;&gt;7 -->
<g id="edge4" class="edge">
<title>3&#45;&gt;7</title>
<path fill="none" stroke="black" d="M35.24,-207.83C43.54,-210.91 53.85,-214.74 63.21,-218.22"/>
<polygon fill="black" stroke="black" points="62.26,-221.6 72.85,-221.8 64.7,-215.04 62.26,-221.6"/>
</g>
<!-- 4 -->
<g id="node8" class="node">
<title>4</title>
<ellipse fill="none" stroke="black" cx="319.99" cy="-322.8" rx="18" ry="18"/>
<text text-anchor="middle" x="319.99" y="-319.1" font-family="helvetica" font-size="14.00">4</text>
</g>
<!-- 4&#45;&gt;&#45;1 -->
<g id="edge5" class="edge">
<title>4&#45;&gt;&#45;1</title>
<path fill="none" stroke="black" d="M334.86,-312.34C345.73,-304.14 361.1,-292.56 373.78,-283"/>
<polygon fill="black" stroke="black" points="376.16,-285.58 382.04,-276.77 371.94,-280 376.16,-285.58"/>
</g>
<!-- 5 -->
<g id="node10" class="node">
<title>5</title>
<ellipse fill="none" stroke="black" cx="90" cy="-173.8" rx="18" ry="18"/>
<text text-anchor="middle" x="90" y="-170.1" font-family="helvetica" font-size="14.00">5</text>
</g>
<!-- 5&#45;&gt;15 -->
<g id="edge6" class="edge">
<title>5&#45;&gt;15</title>
<path fill="none" stroke="black" d="M107.88,-177.74C115.82,-179.59 125.51,-181.86 134.58,-183.98"/>
<polygon fill="black" stroke="black" points="133.9,-187.41 144.43,-186.28 135.49,-180.59 133.9,-187.41"/>
</g>
<!-- 15&#45;&gt;1 -->
<g id="edge16" class="edge">
<title>15&#45;&gt;1</title>
<path fill="none" stroke="black" d="M185.66,-190.8C194.31,-190.8 204.58,-190.8 213.94,-190.8"/>
<polygon fill="black" stroke="black" points="213.98,-194.3 223.98,-190.8 213.98,-187.3 213.98,-194.3"/>
</g>
<!-- 10 -->
<g id="node14" class="node">
<title>10</title>
<ellipse fill="none" stroke="black" cx="242.39" cy="-118.8" rx="20.6" ry="20.6"/>
<text text-anchor="middle" x="242.39" y="-115.1" font-family="helvetica" font-size="14.00">10</text>
</g>
<!-- 9&#45;&gt;10 -->
<g id="edge10" class="edge">
<title>9&#45;&gt;10</title>
<path fill="none" stroke="black" d="M182.95,-118.8C191.33,-118.8 201.67,-118.8 211.31,-118.8"/>
<polygon fill="black" stroke="black" points="211.36,-122.3 221.36,-118.8 211.36,-115.3 211.36,-122.3"/>
</g>
<!-- 8 -->
<g id="node13" class="node">
<title>8</title>
<ellipse fill="none" stroke="black" cx="18" cy="-123.8" rx="18" ry="18"/>
<text text-anchor="middle" x="18" y="-120.1" font-family="helvetica" font-size="14.00">8</text>
</g>
<!-- 8&#45;&gt;6 -->
<g id="edge9" class="edge">
<title>8&#45;&gt;6</title>
<path fill="none" stroke="black" d="M36.3,-122.56C44.02,-122.01 53.29,-121.35 61.89,-120.73"/>
<polygon fill="black" stroke="black" points="62.17,-124.22 71.9,-120.02 61.67,-117.24 62.17,-124.22"/>
</g>
<!-- 14 -->
<g id="node15" class="node">
<title>14</title>
<ellipse fill="none" stroke="black" cx="319.99" cy="-118.8" rx="20.6" ry="20.6"/>
<text text-anchor="middle" x="319.99" y="-115.1" font-family="helvetica" font-size="14.00">14</text>
</g>
<!-- 10&#45;&gt;14 -->
<g id="edge11" class="edge">
<title>10&#45;&gt;14</title>
<path fill="none" stroke="black" d="M263.26,-118.8C271.09,-118.8 280.27,-118.8 288.89,-118.8"/>
<polygon fill="black" stroke="black" points="289,-122.3 299,-118.8 289,-115.3 289,-122.3"/>
</g>
<!-- 13 -->
<g id="node17" class="node">
<title>13</title>
<ellipse fill="none" stroke="black" cx="397.59" cy="-118.8" rx="20.6" ry="20.6"/>
<text text-anchor="middle" x="397.59" y="-115.1" font-family="helvetica" font-size="14.00">13</text>
</g>
<!-- 14&#45;&gt;13 -->
<g id="edge15" class="edge">
<title>14&#45;&gt;13</title>
<path fill="none" stroke="black" d="M340.85,-118.8C348.69,-118.8 357.87,-118.8 366.49,-118.8"/>
<polygon fill="black" stroke="black" points="366.6,-122.3 376.6,-118.8 366.6,-115.3 366.6,-122.3"/>
</g>
<!-- 11 -->
<g id="node16" class="node">
<title>11</title>
<ellipse fill="none" stroke="black" cx="475.18" cy="-69.8" rx="20.6" ry="20.6"/>
<text text-anchor="middle" x="475.18" y="-66.1" font-family="helvetica" font-size="14.00">11</text>
</g>
<!-- 11&#45;&gt;0 -->
<g id="edge12" class="edge">
<title>11&#45;&gt;0</title>
<path fill="none" stroke="black" d="M454.35,-69.8C425.15,-69.8 368.86,-69.8 320.99,-69.8 163.8,-69.8 163.8,-69.8 163.8,-69.8 123.01,-69.8 75.75,-69.8 46.61,-69.8"/>
<polygon fill="black" stroke="black" points="46.39,-66.3 36.39,-69.8 46.39,-73.3 46.39,-66.3"/>
</g>
<!-- 13&#45;&gt;11 -->
<g id="edge14" class="edge">
<title>13&#45;&gt;11</title>
<path fill="none" stroke="black" d="M415.36,-107.92C425.18,-101.56 437.77,-93.4 448.78,-86.26"/>
<polygon fill="black" stroke="black" points="450.7,-89.19 457.19,-80.81 446.9,-83.31 450.7,-89.19"/>
</g>
<!-- 16 -->
<g id="node18" class="node">
<title>16</title>
<ellipse fill="none" stroke="black" cx="242.39" cy="-247.8" rx="20.6" ry="20.6"/>
<text text-anchor="middle" x="242.39" y="-244.1" font-family="helvetica" font-size="14.00">16</text>
</g>
<!-- 16&#45;&gt;12 -->
<g id="edge17" class="edge">
<title>16&#45;&gt;12</title>
<path fill="none" stroke="black" d="M260.93,-238.06C270.37,-232.81 282.22,-226.23 292.74,-220.38"/>
<polygon fill="black" stroke="black" points="294.51,-223.4 301.55,-215.49 291.11,-217.28 294.51,-223.4"/>
</g>
<!-- 17 -->
<g id="node19" class="node">
<title>17</title>
<ellipse fill="none" stroke="black" cx="319.99" cy="-265.8" rx="20.6" ry="20.6"/>
<text text-anchor="middle" x="319.99" y="-262.1" font-family="helvetica" font-size="14.00">17</text>
</g>
<!-- 17&#45;&gt;&#45;1 -->
<g id="edge18" class="edge">
<title>17&#45;&gt;&#45;1</title>
<path fill="none" stroke="black" d="M340.85,-265.8C349.28,-265.8 359.25,-265.8 368.42,-265.8"/>
<polygon fill="black" stroke="black" points="368.67,-269.3 378.67,-265.8 368.67,-262.3 368.67,-269.3"/>
</g>
<!-- 18 -->
<g id="node20" class="node">
<title>18</title>
<ellipse fill="none" stroke="black" cx="397.59" cy="-20.8" rx="20.6" ry="20.6"/>
<text text-anchor="middle" x="397.59" y="-17.1" font-family="helvetica" font-size="14.00">18</text>
</g>
<!-- 18&#45;&gt;11 -->
<g id="edge19" class="edge">
<title>18&#45;&gt;11</title>
<path fill="none" stroke="black" d="M415.36,-31.67C425.18,-38.04 437.77,-46.2 448.78,-53.33"/>
<polygon fill="black" stroke="black" points="446.9,-56.28 457.19,-58.78 450.7,-50.41 446.9,-56.28"/>
</g>
<!-- 19 -->
<g id="node21" class="node">
<title>19</title>
<ellipse fill="none" stroke="black" cx="319.99" cy="-20.8" rx="20.6" ry="20.6"/>
<text text-anchor="middle" x="319.99" y="-17.1" font-family="helvetica" font-size="14.00">19</text>
</g>
<!-- 19&#45;&gt;18 -->
<g id="edge20" class="edge">
<title>19&#45;&gt;18</title>
<path fill="none" stroke="black" d="M340.85,-20.8C348.69,-20.8 357.87,-20.8 366.49,-20.8"/>
<polygon fill="black" stroke="black" points="366.6,-24.3 376.6,-20.8 366.6,-17.3 366.6,-24.3"/>
</g>
</g>
</svg>
