<?xml version="1.0" encoding="UTF-8" standalone="no"?>
<!DOCTYPE svg PUBLIC "-//W3C//DTD SVG 1.1//EN"
 "http://www.w3.org/Graphics/SVG/1.1/DTD/svg11.dtd">
<!-- Generated by graphviz version 2.44.0 (0)
 -->
<!-- Title: G Pages: 1 -->
<svg width="123pt" height="650pt"
 viewBox="0.00 0.00 123.29 649.80" xmlns="http://www.w3.org/2000/svg" xmlns:xlink="http://www.w3.org/1999/xlink">
<g id="graph0" class="graph" transform="scale(1 1) rotate(0) translate(4 645.8)">
<title>G</title>
<polygon fill="white" stroke="transparent" points="-4,4 -4,-645.8 119.29,-645.8 119.29,4 -4,4"/>
<!-- 0 -->
<g id="node1" class="node">
<title>0</title>
<ellipse fill="none" stroke="black" cx="20.8" cy="-623.8" rx="18" ry="18"/>
<text text-anchor="middle" x="20.8" y="-620.1" font-family="helvetica" font-size="14.00">0</text>
</g>
<!-- &#45;1 -->
<g id="node2" class="node">
<title>&#45;1</title>
<ellipse fill="#ffdddd" stroke="black" cx="96.44" cy="-326.8" rx="18.7" ry="18.7"/>
<text text-anchor="middle" x="96.44" y="-323.1" font-family="helvetica" font-size="14.00">&#45;1</text>
</g>
<!-- 0&#45;&gt;&#45;1 -->
<g id="edge1" class="edge">
<title>0&#45;&gt;&#45;1</title>
<path fill="none" stroke="black" d="M33.32,-610.5C36.42,-606.34 39.49,-601.59 41.6,-596.8 77.94,-514.27 89.96,-406.75 93.77,-355.89"/>
<polygon fill="black" stroke="black" points="97.28,-355.86 94.48,-345.64 90.3,-355.37 97.28,-355.86"/>
</g>
<!-- 1 -->
<g id="node3" class="node">
<title>1</title>
<ellipse fill="none" stroke="black" cx="20.8" cy="-569.8" rx="18" ry="18"/>
<text text-anchor="middle" x="20.8" y="-566.1" font-family="helvetica" font-size="14.00">1</text>
</g>
<!-- 1&#45;&gt;&#45;1 -->
<g id="edge2" class="edge">
<title>1&#45;&gt;&#45;1</title>
<path fill="none" stroke="black" d="M33.17,-556.44C36.27,-552.28 39.38,-547.53 41.6,-542.8 71.25,-479.57 85.87,-397.99 91.9,-355.47"/>
<polygon fill="black" stroke="black" points="95.38,-355.91 93.26,-345.53 88.44,-354.97 95.38,-355.91"/>
</g>
<!-- 2 -->
<g id="node4" class="node">
<title>2</title>
<ellipse fill="none" stroke="black" cx="20.8" cy="-515.8" rx="18" ry="18"/>
<text text-anchor="middle" x="20.8" y="-512.1" font-family="helvetica" font-size="14.00">2</text>
</g>
<!-- 2&#45;&gt;&#45;1 -->
<g id="edge3" class="edge">
<title>2&#45;&gt;&#45;1</title>
<path fill="none" stroke="black" d="M32.95,-502.33C36.04,-498.16 39.2,-493.45 41.6,-488.8 64.55,-444.37 80.64,-388.12 88.94,-354.95"/>
<polygon fill="black" stroke="black" points="92.39,-355.57 91.36,-345.03 85.59,-353.91 92.39,-355.57"/>
</g>
<!-- 3 -->
<g id="node5" class="node">
<title>3</title>
<ellipse fill="none" stroke="black" cx="20.8" cy="-461.8" rx="18" ry="18"/>
<text text-anchor="middle" x="20.8" y="-458.1" font-family="helvetica" font-size="14.00">3</text>
</g>
<!-- 3&#45;&gt;&#45;1 -->
<g id="edge4" class="edge">
<title>3&#45;&gt;&#45;1</title>
<path fill="none" stroke="black" d="M32.54,-448.1C35.62,-443.93 38.87,-439.26 41.6,-434.8 58.04,-407.84 73.78,-375.2 83.95,-352.9"/>
<polygon fill="black" stroke="black" points="87.16,-354.29 88.08,-343.74 80.78,-351.41 87.16,-354.29"/>
</g>
<!-- 4 -->
<g id="node6" class="node">
<title>4</title>
<ellipse fill="none" stroke="black" cx="20.8" cy="-407.8" rx="18" ry="18"/>
<text text-anchor="middle" x="20.8" y="-404.1" font-family="helvetica" font-size="14.00">4</text>
</g>
<!-- 4&#45;&gt;&#45;1 -->
<g id="edge5" class="edge">
<title>4&#45;&gt;&#45;1</title>
<path fill="none" stroke="black" d="M33.63,-394.78C45.09,-382.18 62.66,-362.86 76.14,-348.03"/>
<polygon fill="black" stroke="black" points="79.01,-350.07 83.15,-340.32 73.83,-345.36 79.01,-350.07"/>
</g>
<!-- 5 -->
<g id="node7" class="node">
<title>5</title>
<ellipse fill="none" stroke="black" cx="20.8" cy="-353.8" rx="18" ry="18"/>
<text text-anchor="middle" x="20.8" y="-350.1" font-family="helvetica" font-size="14.00">5</text>
</g>
<!-- 5&#45;&gt;&#45;1 -->
<g id="edge6" class="edge">
<title>5&#45;&gt;&#45;1</title>
<path fill="none" stroke="black" d="M38.14,-347.81C47.2,-344.49 58.68,-340.28 68.98,-336.5"/>
<polygon fill="black" stroke="black" points="70.19,-339.78 78.38,-333.06 67.78,-333.21 70.19,-339.78"/>
</g>
<!-- 6 -->
<g id="node8" class="node">
<title>6</title>
<ellipse fill="none" stroke="black" cx="20.8" cy="-299.8" rx="18" ry="18"/>
<text text-anchor="middle" x="20.8" y="-296.1" font-family="helvetica" font-size="14.00">6</text>
</g>
<!-- 6&#45;&gt;&#45;1 -->
<g id="edge7" class="edge">
<title>6&#45;&gt;&#45;1</title>
<path fill="none" stroke="black" d="M38.14,-305.79C47.2,-309.11 58.68,-313.32 68.98,-317.1"/>
<polygon fill="black" stroke="black" points="67.78,-320.39 78.38,-320.54 70.19,-313.81 67.78,-320.39"/>
</g>
<!-- 7 -->
<g id="node9" class="node">
<title>7</title>
<ellipse fill="none" stroke="black" cx="20.8" cy="-245.8" rx="18" ry="18"/>
<text text-anchor="middle" x="20.8" y="-242.1" font-family="helvetica" font-size="14.00">7</text>
</g>
<!-- 7&#45;&gt;&#45;1 -->
<g id="edge8" class="edge">
<title>7&#45;&gt;&#45;1</title>
<path fill="none" stroke="black" d="M33.63,-258.81C45.09,-271.41 62.66,-290.74 76.14,-305.57"/>
<polygon fill="black" stroke="black" points="73.83,-308.23 83.15,-313.28 79.01,-303.52 73.83,-308.23"/>
</g>
<!-- 8 -->
<g id="node10" class="node">
<title>8</title>
<ellipse fill="none" stroke="black" cx="20.8" cy="-191.8" rx="18" ry="18"/>
<text text-anchor="middle" x="20.8" y="-188.1" font-family="helvetica" font-size="14.00">8</text>
</g>
<!-- 8&#45;&gt;&#45;1 -->
<g id="edge9" class="edge">
<title>8&#45;&gt;&#45;1</title>
<path fill="none" stroke="black" d="M32.54,-205.5C35.62,-209.67 38.87,-214.33 41.6,-218.8 58.04,-245.75 73.78,-278.4 83.95,-300.69"/>
<polygon fill="black" stroke="black" points="80.78,-302.18 88.08,-309.86 87.16,-299.31 80.78,-302.18"/>
</g>
<!-- 9 -->
<g id="node11" class="node">
<title>9</title>
<ellipse fill="none" stroke="black" cx="20.8" cy="-137.8" rx="18" ry="18"/>
<text text-anchor="middle" x="20.8" y="-134.1" font-family="helvetica" font-size="14.00">9</text>
</g>
<!-- 9&#45;&gt;&#45;1 -->
<g id="edge10" class="edge">
<title>9&#45;&gt;&#45;1</title>
<path fill="none" stroke="black" d="M32.95,-151.27C36.04,-155.43 39.2,-160.15 41.6,-164.8 64.55,-209.23 80.64,-265.47 88.94,-298.65"/>
<polygon fill="black" stroke="black" points="85.59,-299.68 91.36,-308.57 92.39,-298.02 85.59,-299.68"/>
</g>
<!-- 10 -->
<g id="node12" class="node">
<title>10</title>
<ellipse fill="none" stroke="black" cx="20.8" cy="-80.8" rx="20.6" ry="20.6"/>
<text text-anchor="middle" x="20.8" y="-77.1" font-family="helvetica" font-size="14.00">10</text>
</g>
<!-- 10&#45;&gt;&#45;1 -->
<g id="edge11" class="edge">
<title>10&#45;&gt;&#45;1</title>
<path fill="none" stroke="black" d="M33.95,-97.04C36.77,-101.35 39.54,-106.11 41.6,-110.8 69.62,-174.6 84.88,-255.68 91.45,-298.05"/>
<polygon fill="black" stroke="black" points="88.03,-298.82 92.98,-308.19 94.95,-297.79 88.03,-298.82"/>
</g>
<!-- 11 -->
<g id="node13" class="node">
<title>11</title>
<ellipse fill="none" stroke="black" cx="20.8" cy="-20.8" rx="20.6" ry="20.6"/>
<text text-anchor="middle" x="20.8" y="-17.1" font-family="helvetica" font-size="14.00">11</text>
</g>
<!-- 11&#45;&gt;&#45;1 -->
<g id="edge12" class="edge">
<title>11&#45;&gt;&#45;1</title>
<path fill="none" stroke="black" d="M34.12,-36.97C36.93,-41.28 39.66,-46.06 41.6,-50.8 76.6,-136.44 89.29,-246.55 93.52,-297.95"/>
<polygon fill="black" stroke="black" points="90.04,-298.3 94.3,-308 97.01,-297.76 90.04,-298.3"/>
</g>
</g>
</svg>
