<?xml version="1.0" encoding="UTF-8" standalone="no"?>
<!DOCTYPE svg PUBLIC "-//W3C//DTD SVG 1.1//EN"
 "http://www.w3.org/Graphics/SVG/1.1/DTD/svg11.dtd">
<!-- Generated by graphviz version 2.44.0 (0)
 -->
<!-- Title: G Pages: 1 -->
<svg width="1158pt" height="78pt"
 viewBox="0.00 0.00 1157.58 77.80" xmlns="http://www.w3.org/2000/svg" xmlns:xlink="http://www.w3.org/1999/xlink">
<g id="graph0" class="graph" transform="scale(1 1) rotate(0) translate(4 73.8)">
<title>G</title>
<polygon fill="white" stroke="transparent" points="-4,4 -4,-73.8 1153.58,-73.8 1153.58,4 -4,4"/>
<!-- 0 -->
<g id="node1" class="node">
<title>0</title>
<ellipse fill="none" stroke="black" cx="18" cy="-23" rx="18" ry="18"/>
<text text-anchor="middle" x="18" y="-19.3" font-family="helvetica" font-size="14.00">0</text>
</g>
<!-- 1 -->
<g id="node2" class="node">
<title>1</title>
<ellipse fill="none" stroke="black" cx="90" cy="-46" rx="18" ry="18"/>
<text text-anchor="middle" x="90" y="-42.3" font-family="helvetica" font-size="14.00">1</text>
</g>
<!-- 0&#45;&gt;1 -->
<g id="edge1" class="edge">
<title>0&#45;&gt;1</title>
<path fill="none" stroke="black" d="M35.24,-28.33C43.42,-31.02 53.55,-34.35 62.8,-37.39"/>
<polygon fill="black" stroke="black" points="61.77,-40.74 72.37,-40.53 63.96,-34.09 61.77,-40.74"/>
</g>
<!-- 2 -->
<g id="node3" class="node">
<title>2</title>
<ellipse fill="none" stroke="black" cx="162" cy="-46" rx="18" ry="18"/>
<text text-anchor="middle" x="162" y="-42.3" font-family="helvetica" font-size="14.00">2</text>
</g>
<!-- 1&#45;&gt;2 -->
<g id="edge2" class="edge">
<title>1&#45;&gt;2</title>
<path fill="none" stroke="black" d="M108.3,-46C116.02,-46 125.29,-46 133.89,-46"/>
<polygon fill="black" stroke="black" points="133.9,-49.5 143.9,-46 133.9,-42.5 133.9,-49.5"/>
</g>
<!-- 9 -->
<g id="node4" class="node">
<title>9</title>
<ellipse fill="none" stroke="black" cx="234" cy="-47" rx="18" ry="18"/>
<text text-anchor="middle" x="234" y="-43.3" font-family="helvetica" font-size="14.00">9</text>
</g>
<!-- 2&#45;&gt;9 -->
<g id="edge3" class="edge">
<title>2&#45;&gt;9</title>
<path fill="none" stroke="black" d="M180.3,-46.25C188.02,-46.36 197.29,-46.49 205.89,-46.61"/>
<polygon fill="black" stroke="black" points="205.85,-50.11 215.9,-46.76 205.95,-43.11 205.85,-50.11"/>
</g>
<!-- 13 -->
<g id="node14" class="node">
<title>13</title>
<ellipse fill="none" stroke="black" cx="308.8" cy="-49" rx="20.6" ry="20.6"/>
<text text-anchor="middle" x="308.8" y="-45.3" font-family="helvetica" font-size="14.00">13</text>
</g>
<!-- 9&#45;&gt;13 -->
<g id="edge10" class="edge">
<title>9&#45;&gt;13</title>
<path fill="none" stroke="black" d="M252.25,-47.47C259.84,-47.68 268.99,-47.93 277.65,-48.17"/>
<polygon fill="black" stroke="black" points="277.74,-51.68 287.84,-48.45 277.93,-44.68 277.74,-51.68"/>
</g>
<!-- 3 -->
<g id="node5" class="node">
<title>3</title>
<ellipse fill="none" stroke="black" cx="749.19" cy="-49" rx="18" ry="18"/>
<text text-anchor="middle" x="749.19" y="-45.3" font-family="helvetica" font-size="14.00">3</text>
</g>
<!-- 10 -->
<g id="node6" class="node">
<title>10</title>
<ellipse fill="none" stroke="black" cx="823.99" cy="-49" rx="20.6" ry="20.6"/>
<text text-anchor="middle" x="823.99" y="-45.3" font-family="helvetica" font-size="14.00">10</text>
</g>
<!-- 3&#45;&gt;10 -->
<g id="edge4" class="edge">
<title>3&#45;&gt;10</title>
<path fill="none" stroke="black" d="M767.44,-49C775.04,-49 784.18,-49 792.84,-49"/>
<polygon fill="black" stroke="black" points="793.03,-52.5 803.03,-49 793.03,-45.5 793.03,-52.5"/>
</g>
<!-- 15 -->
<g id="node15" class="node">
<title>15</title>
<ellipse fill="none" stroke="black" cx="901.59" cy="-49" rx="20.6" ry="20.6"/>
<text text-anchor="middle" x="901.59" y="-45.3" font-family="helvetica" font-size="14.00">15</text>
</g>
<!-- 10&#45;&gt;15 -->
<g id="edge11" class="edge">
<title>10&#45;&gt;15</title>
<path fill="none" stroke="black" d="M844.85,-49C852.69,-49 861.87,-49 870.49,-49"/>
<polygon fill="black" stroke="black" points="870.6,-52.5 880.6,-49 870.6,-45.5 870.6,-52.5"/>
</g>
<!-- 4 -->
<g id="node7" class="node">
<title>4</title>
<ellipse fill="none" stroke="black" cx="677.19" cy="-49" rx="18" ry="18"/>
<text text-anchor="middle" x="677.19" y="-45.3" font-family="helvetica" font-size="14.00">4</text>
</g>
<!-- 4&#45;&gt;3 -->
<g id="edge5" class="edge">
<title>4&#45;&gt;3</title>
<path fill="none" stroke="black" d="M695.5,-49C703.21,-49 712.48,-49 721.08,-49"/>
<polygon fill="black" stroke="black" points="721.09,-52.5 731.09,-49 721.09,-45.5 721.09,-52.5"/>
</g>
<!-- 5 -->
<g id="node8" class="node">
<title>5</title>
<ellipse fill="none" stroke="black" cx="1053.98" cy="-47" rx="18" ry="18"/>
<text text-anchor="middle" x="1053.98" y="-43.3" font-family="helvetica" font-size="14.00">5</text>
</g>
<!-- 11 -->
<g id="node9" class="node">
<title>11</title>
<ellipse fill="none" stroke="black" cx="1128.78" cy="-23" rx="20.6" ry="20.6"/>
<text text-anchor="middle" x="1128.78" y="-19.3" font-family="helvetica" font-size="14.00">11</text>
</g>
<!-- 5&#45;&gt;11 -->
<g id="edge6" class="edge">
<title>5&#45;&gt;11</title>
<path fill="none" stroke="black" d="M1071.5,-41.55C1079.63,-38.87 1089.68,-35.56 1099.02,-32.48"/>
<polygon fill="black" stroke="black" points="1100.35,-35.73 1108.75,-29.27 1098.16,-29.08 1100.35,-35.73"/>
</g>
<!-- 11&#45;&gt;0 -->
<g id="edge12" class="edge">
<title>11&#45;&gt;0</title>
<path fill="none" stroke="black" d="M1108.35,-18.01C1080.27,-11.24 1026.6,0 980.18,0 161,0 161,0 161,0 120.25,0 73.77,-9.34 45.41,-16.12"/>
<polygon fill="black" stroke="black" points="44.35,-12.77 35.47,-18.57 46.02,-19.57 44.35,-12.77"/>
</g>
<!-- 6 -->
<g id="node10" class="node">
<title>6</title>
<ellipse fill="none" stroke="black" cx="605.19" cy="-49" rx="18" ry="18"/>
<text text-anchor="middle" x="605.19" y="-45.3" font-family="helvetica" font-size="14.00">6</text>
</g>
<!-- 6&#45;&gt;4 -->
<g id="edge7" class="edge">
<title>6&#45;&gt;4</title>
<path fill="none" stroke="black" d="M623.5,-49C631.21,-49 640.48,-49 649.08,-49"/>
<polygon fill="black" stroke="black" points="649.09,-52.5 659.09,-49 649.09,-45.5 649.09,-52.5"/>
</g>
<!-- 7 -->
<g id="node11" class="node">
<title>7</title>
<ellipse fill="none" stroke="black" cx="455.6" cy="-49" rx="18" ry="18"/>
<text text-anchor="middle" x="455.6" y="-45.3" font-family="helvetica" font-size="14.00">7</text>
</g>
<!-- 14 -->
<g id="node12" class="node">
<title>14</title>
<ellipse fill="none" stroke="black" cx="530.39" cy="-49" rx="20.6" ry="20.6"/>
<text text-anchor="middle" x="530.39" y="-45.3" font-family="helvetica" font-size="14.00">14</text>
</g>
<!-- 7&#45;&gt;14 -->
<g id="edge8" class="edge">
<title>7&#45;&gt;14</title>
<path fill="none" stroke="black" d="M473.85,-49C481.44,-49 490.59,-49 499.25,-49"/>
<polygon fill="black" stroke="black" points="499.43,-52.5 509.43,-49 499.43,-45.5 499.43,-52.5"/>
</g>
<!-- 14&#45;&gt;6 -->
<g id="edge15" class="edge">
<title>14&#45;&gt;6</title>
<path fill="none" stroke="black" d="M551.29,-49C559.1,-49 568.2,-49 576.63,-49"/>
<polygon fill="black" stroke="black" points="576.8,-52.5 586.8,-49 576.8,-45.5 576.8,-52.5"/>
</g>
<!-- 8 -->
<g id="node13" class="node">
<title>8</title>
<ellipse fill="none" stroke="black" cx="383.6" cy="-49" rx="18" ry="18"/>
<text text-anchor="middle" x="383.6" y="-45.3" font-family="helvetica" font-size="14.00">8</text>
</g>
<!-- 8&#45;&gt;7 -->
<g id="edge9" class="edge">
<title>8&#45;&gt;7</title>
<path fill="none" stroke="black" d="M401.9,-49C409.61,-49 418.88,-49 427.48,-49"/>
<polygon fill="black" stroke="black" points="427.49,-52.5 437.49,-49 427.49,-45.5 427.49,-52.5"/>
</g>
<!-- 13&#45;&gt;8 -->
<g id="edge14" class="edge">
<title>13&#45;&gt;8</title>
<path fill="none" stroke="black" d="M329.69,-49C337.51,-49 346.61,-49 355.04,-49"/>
<polygon fill="black" stroke="black" points="355.21,-52.5 365.21,-49 355.21,-45.5 355.21,-52.5"/>
</g>
<!-- 12 -->
<g id="node16" class="node">
<title>12</title>
<ellipse fill="none" stroke="black" cx="979.18" cy="-49" rx="20.6" ry="20.6"/>
<text text-anchor="middle" x="979.18" y="-45.3" font-family="helvetica" font-size="14.00">12</text>
</g>
<!-- 15&#45;&gt;12 -->
<g id="edge16" class="edge">
<title>15&#45;&gt;12</title>
<path fill="none" stroke="black" d="M922.45,-49C930.29,-49 939.46,-49 948.08,-49"/>
<polygon fill="black" stroke="black" points="948.19,-52.5 958.19,-49 948.19,-45.5 948.19,-52.5"/>
</g>
<!-- 12&#45;&gt;5 -->
<g id="edge13" class="edge">
<title>12&#45;&gt;5</title>
<path fill="none" stroke="black" d="M1000.08,-48.45C1007.89,-48.24 1016.99,-47.99 1025.42,-47.76"/>
<polygon fill="black" stroke="black" points="1025.69,-51.25 1035.59,-47.48 1025.5,-44.25 1025.69,-51.25"/>
</g>
</g>
</svg>
