<?xml version="1.0" encoding="UTF-8" standalone="no"?>
<!DOCTYPE svg PUBLIC "-//W3C//DTD SVG 1.1//EN"
 "http://www.w3.org/Graphics/SVG/1.1/DTD/svg11.dtd">
<!-- Generated by graphviz version 2.44.0 (0)
 -->
<!-- Title: G Pages: 1 -->
<svg width="127pt" height="584pt"
 viewBox="0.00 0.00 127.19 583.80" xmlns="http://www.w3.org/2000/svg" xmlns:xlink="http://www.w3.org/1999/xlink">
<g id="graph0" class="graph" transform="scale(1 1) rotate(0) translate(4 579.8)">
<title>G</title>
<polygon fill="white" stroke="transparent" points="-4,4 -4,-579.8 123.19,-579.8 123.19,4 -4,4"/>
<!-- 0 -->
<g id="node1" class="node">
<title>0</title>
<ellipse fill="none" stroke="black" cx="20.8" cy="-18" rx="18" ry="18"/>
<text text-anchor="middle" x="20.8" y="-14.3" font-family="helvetica" font-size="14.00">0</text>
</g>
<!-- 8 -->
<g id="node2" class="node">
<title>8</title>
<ellipse fill="none" stroke="black" cx="98.39" cy="-18" rx="18" ry="18"/>
<text text-anchor="middle" x="98.39" y="-14.3" font-family="helvetica" font-size="14.00">8</text>
</g>
<!-- 0&#45;&gt;8 -->
<g id="edge1" class="edge">
<title>0&#45;&gt;8</title>
<path fill="none" stroke="black" d="M38.95,-18C48.13,-18 59.66,-18 70.05,-18"/>
<polygon fill="black" stroke="black" points="70.31,-21.5 80.31,-18 70.31,-14.5 70.31,-21.5"/>
</g>
<!-- 8&#45;&gt;8 -->
<g id="edge9" class="edge">
<title>8&#45;&gt;8</title>
<path fill="none" stroke="black" d="M86.15,-31.67C81.25,-42.66 85.33,-54 98.39,-54 107.37,-54 112.11,-48.64 112.6,-41.72"/>
<polygon fill="black" stroke="black" points="115.99,-40.81 110.64,-31.67 109.12,-42.15 115.99,-40.81"/>
</g>
<!-- 1 -->
<g id="node3" class="node">
<title>1</title>
<ellipse fill="none" stroke="black" cx="98.39" cy="-90" rx="18" ry="18"/>
<text text-anchor="middle" x="98.39" y="-86.3" font-family="helvetica" font-size="14.00">1</text>
</g>
<!-- 1&#45;&gt;1 -->
<g id="edge2" class="edge">
<title>1&#45;&gt;1</title>
<path fill="none" stroke="black" d="M86.15,-103.67C81.25,-114.66 85.33,-126 98.39,-126 107.37,-126 112.11,-120.64 112.6,-113.72"/>
<polygon fill="black" stroke="black" points="115.99,-112.81 110.64,-103.67 109.12,-114.15 115.99,-112.81"/>
</g>
<!-- 2 -->
<g id="node4" class="node">
<title>2</title>
<ellipse fill="none" stroke="black" cx="98.39" cy="-162" rx="18" ry="18"/>
<text text-anchor="middle" x="98.39" y="-158.3" font-family="helvetica" font-size="14.00">2</text>
</g>
<!-- 2&#45;&gt;2 -->
<g id="edge3" class="edge">
<title>2&#45;&gt;2</title>
<path fill="none" stroke="black" d="M86.15,-175.67C81.25,-186.66 85.33,-198 98.39,-198 107.37,-198 112.11,-192.64 112.6,-185.72"/>
<polygon fill="black" stroke="black" points="115.99,-184.81 110.64,-175.67 109.12,-186.15 115.99,-184.81"/>
</g>
<!-- 3 -->
<g id="node5" class="node">
<title>3</title>
<ellipse fill="none" stroke="black" cx="98.39" cy="-234" rx="18" ry="18"/>
<text text-anchor="middle" x="98.39" y="-230.3" font-family="helvetica" font-size="14.00">3</text>
</g>
<!-- 3&#45;&gt;3 -->
<g id="edge4" class="edge">
<title>3&#45;&gt;3</title>
<path fill="none" stroke="black" d="M86.15,-247.67C81.25,-258.66 85.33,-270 98.39,-270 107.37,-270 112.11,-264.64 112.6,-257.72"/>
<polygon fill="black" stroke="black" points="115.99,-256.81 110.64,-247.67 109.12,-258.15 115.99,-256.81"/>
</g>
<!-- 4 -->
<g id="node6" class="node">
<title>4</title>
<ellipse fill="none" stroke="black" cx="20.8" cy="-309" rx="18" ry="18"/>
<text text-anchor="middle" x="20.8" y="-305.3" font-family="helvetica" font-size="14.00">4</text>
</g>
<!-- 13 -->
<g id="node7" class="node">
<title>13</title>
<ellipse fill="none" stroke="black" cx="98.39" cy="-309" rx="20.6" ry="20.6"/>
<text text-anchor="middle" x="98.39" y="-305.3" font-family="helvetica" font-size="14.00">13</text>
</g>
<!-- 4&#45;&gt;13 -->
<g id="edge5" class="edge">
<title>4&#45;&gt;13</title>
<path fill="none" stroke="black" d="M38.95,-309C47.33,-309 57.67,-309 67.31,-309"/>
<polygon fill="black" stroke="black" points="67.36,-312.5 77.36,-309 67.36,-305.5 67.36,-312.5"/>
</g>
<!-- 13&#45;&gt;13 -->
<g id="edge14" class="edge">
<title>13&#45;&gt;13</title>
<path fill="none" stroke="black" d="M85.4,-325.75C81.74,-336.92 86.07,-347.8 98.39,-347.8 106.86,-347.8 111.56,-342.66 112.48,-335.81"/>
<polygon fill="black" stroke="black" points="115.94,-335.32 111.39,-325.75 108.98,-336.07 115.94,-335.32"/>
</g>
<!-- 5 -->
<g id="node8" class="node">
<title>5</title>
<ellipse fill="none" stroke="black" cx="20.8" cy="-90" rx="18" ry="18"/>
<text text-anchor="middle" x="20.8" y="-86.3" font-family="helvetica" font-size="14.00">5</text>
</g>
<!-- 5&#45;&gt;1 -->
<g id="edge6" class="edge">
<title>5&#45;&gt;1</title>
<path fill="none" stroke="black" d="M38.95,-90C48.13,-90 59.66,-90 70.05,-90"/>
<polygon fill="black" stroke="black" points="70.31,-93.5 80.31,-90 70.31,-86.5 70.31,-93.5"/>
</g>
<!-- 6 -->
<g id="node9" class="node">
<title>6</title>
<ellipse fill="none" stroke="black" cx="20.8" cy="-387" rx="18" ry="18"/>
<text text-anchor="middle" x="20.8" y="-383.3" font-family="helvetica" font-size="14.00">6</text>
</g>
<!-- 15 -->
<g id="node10" class="node">
<title>15</title>
<ellipse fill="none" stroke="black" cx="98.39" cy="-387" rx="20.6" ry="20.6"/>
<text text-anchor="middle" x="98.39" y="-383.3" font-family="helvetica" font-size="14.00">15</text>
</g>
<!-- 6&#45;&gt;15 -->
<g id="edge7" class="edge">
<title>6&#45;&gt;15</title>
<path fill="none" stroke="black" d="M38.95,-387C47.33,-387 57.67,-387 67.31,-387"/>
<polygon fill="black" stroke="black" points="67.36,-390.5 77.36,-387 67.36,-383.5 67.36,-390.5"/>
</g>
<!-- 15&#45;&gt;15 -->
<g id="edge16" class="edge">
<title>15&#45;&gt;15</title>
<path fill="none" stroke="black" d="M85.4,-403.75C81.74,-414.92 86.07,-425.8 98.39,-425.8 106.86,-425.8 111.56,-420.66 112.48,-413.81"/>
<polygon fill="black" stroke="black" points="115.94,-413.32 111.39,-403.75 108.98,-414.07 115.94,-413.32"/>
</g>
<!-- 7 -->
<g id="node11" class="node">
<title>7</title>
<ellipse fill="none" stroke="black" cx="98.39" cy="-462" rx="18" ry="18"/>
<text text-anchor="middle" x="98.39" y="-458.3" font-family="helvetica" font-size="14.00">7</text>
</g>
<!-- 7&#45;&gt;7 -->
<g id="edge8" class="edge">
<title>7&#45;&gt;7</title>
<path fill="none" stroke="black" d="M86.15,-475.67C81.25,-486.66 85.33,-498 98.39,-498 107.37,-498 112.11,-492.64 112.6,-485.72"/>
<polygon fill="black" stroke="black" points="115.99,-484.81 110.64,-475.67 109.12,-486.15 115.99,-484.81"/>
</g>
<!-- 9 -->
<g id="node12" class="node">
<title>9</title>
<ellipse fill="none" stroke="black" cx="20.8" cy="-162" rx="18" ry="18"/>
<text text-anchor="middle" x="20.8" y="-158.3" font-family="helvetica" font-size="14.00">9</text>
</g>
<!-- 9&#45;&gt;2 -->
<g id="edge10" class="edge">
<title>9&#45;&gt;2</title>
<path fill="none" stroke="black" d="M38.95,-162C48.13,-162 59.66,-162 70.05,-162"/>
<polygon fill="black" stroke="black" points="70.31,-165.5 80.31,-162 70.31,-158.5 70.31,-165.5"/>
</g>
<!-- 10 -->
<g id="node13" class="node">
<title>10</title>
<ellipse fill="none" stroke="black" cx="20.8" cy="-462" rx="20.6" ry="20.6"/>
<text text-anchor="middle" x="20.8" y="-458.3" font-family="helvetica" font-size="14.00">10</text>
</g>
<!-- 10&#45;&gt;7 -->
<g id="edge11" class="edge">
<title>10&#45;&gt;7</title>
<path fill="none" stroke="black" d="M41.66,-462C50.31,-462 60.58,-462 69.94,-462"/>
<polygon fill="black" stroke="black" points="69.98,-465.5 79.98,-462 69.98,-458.5 69.98,-465.5"/>
</g>
<!-- 11 -->
<g id="node14" class="node">
<title>11</title>
<ellipse fill="none" stroke="black" cx="98.39" cy="-537" rx="20.6" ry="20.6"/>
<text text-anchor="middle" x="98.39" y="-533.3" font-family="helvetica" font-size="14.00">11</text>
</g>
<!-- 11&#45;&gt;11 -->
<g id="edge12" class="edge">
<title>11&#45;&gt;11</title>
<path fill="none" stroke="black" d="M85.4,-553.75C81.74,-564.92 86.07,-575.8 98.39,-575.8 106.86,-575.8 111.56,-570.66 112.48,-563.81"/>
<polygon fill="black" stroke="black" points="115.94,-563.32 111.39,-553.75 108.98,-564.07 115.94,-563.32"/>
</g>
<!-- 12 -->
<g id="node15" class="node">
<title>12</title>
<ellipse fill="none" stroke="black" cx="20.8" cy="-234" rx="20.6" ry="20.6"/>
<text text-anchor="middle" x="20.8" y="-230.3" font-family="helvetica" font-size="14.00">12</text>
</g>
<!-- 12&#45;&gt;3 -->
<g id="edge13" class="edge">
<title>12&#45;&gt;3</title>
<path fill="none" stroke="black" d="M41.66,-234C50.31,-234 60.58,-234 69.94,-234"/>
<polygon fill="black" stroke="black" points="69.98,-237.5 79.98,-234 69.98,-230.5 69.98,-237.5"/>
</g>
<!-- 14 -->
<g id="node16" class="node">
<title>14</title>
<ellipse fill="none" stroke="black" cx="20.8" cy="-537" rx="20.6" ry="20.6"/>
<text text-anchor="middle" x="20.8" y="-533.3" font-family="helvetica" font-size="14.00">14</text>
</g>
<!-- 14&#45;&gt;11 -->
<g id="edge15" class="edge">
<title>14&#45;&gt;11</title>
<path fill="none" stroke="black" d="M41.66,-537C49.5,-537 58.67,-537 67.29,-537"/>
<polygon fill="black" stroke="black" points="67.4,-540.5 77.4,-537 67.4,-533.5 67.4,-540.5"/>
</g>
</g>
</svg>
