<?xml version="1.0" encoding="UTF-8" standalone="no"?>
<!DOCTYPE svg PUBLIC "-//W3C//DTD SVG 1.1//EN"
 "http://www.w3.org/Graphics/SVG/1.1/DTD/svg11.dtd">
<!-- Generated by graphviz version 2.44.0 (0)
 -->
<!-- Title: G Pages: 1 -->
<svg width="738pt" height="803pt"
 viewBox="0.00 0.00 738.47 802.80" xmlns="http://www.w3.org/2000/svg" xmlns:xlink="http://www.w3.org/1999/xlink">
<g id="graph0" class="graph" transform="scale(1 1) rotate(0) translate(4 798.8)">
<title>G</title>
<polygon fill="white" stroke="transparent" points="-4,4 -4,-798.8 734.47,-798.8 734.47,4 -4,4"/>
<!-- 0 -->
<g id="node1" class="node">
<title>0</title>
<ellipse fill="none" stroke="black" cx="98.39" cy="-110.8" rx="18" ry="18"/>
<text text-anchor="middle" x="98.39" y="-107.1" font-family="helvetica" font-size="14.00">0</text>
</g>
<!-- 1 -->
<g id="node2" class="node">
<title>1</title>
<ellipse fill="none" stroke="black" cx="175.99" cy="-197.8" rx="18" ry="18"/>
<text text-anchor="middle" x="175.99" y="-194.1" font-family="helvetica" font-size="14.00">1</text>
</g>
<!-- 0&#45;&gt;1 -->
<g id="edge1" class="edge">
<title>0&#45;&gt;1</title>
<path fill="none" stroke="black" d="M110.88,-124.01C122.98,-137.94 142.22,-160.08 156.47,-176.48"/>
<polygon fill="black" stroke="black" points="154.2,-179.21 163.4,-184.46 159.48,-174.62 154.2,-179.21"/>
</g>
<!-- 2 -->
<g id="node3" class="node">
<title>2</title>
<ellipse fill="none" stroke="black" cx="253.59" cy="-284.8" rx="18" ry="18"/>
<text text-anchor="middle" x="253.59" y="-281.1" font-family="helvetica" font-size="14.00">2</text>
</g>
<!-- 1&#45;&gt;2 -->
<g id="edge2" class="edge">
<title>1&#45;&gt;2</title>
<path fill="none" stroke="black" d="M188.47,-211.01C200.57,-224.94 219.81,-247.08 234.06,-263.48"/>
<polygon fill="black" stroke="black" points="231.8,-266.21 241,-271.46 237.08,-261.62 231.8,-266.21"/>
</g>
<!-- 3 -->
<g id="node4" class="node">
<title>3</title>
<ellipse fill="none" stroke="black" cx="331.18" cy="-341.8" rx="18" ry="18"/>
<text text-anchor="middle" x="331.18" y="-338.1" font-family="helvetica" font-size="14.00">3</text>
</g>
<!-- 2&#45;&gt;3 -->
<g id="edge3" class="edge">
<title>2&#45;&gt;3</title>
<path fill="none" stroke="black" d="M268.45,-295.25C279.54,-303.61 295.28,-315.48 308.1,-325.14"/>
<polygon fill="black" stroke="black" points="306.31,-328.18 316.41,-331.41 310.53,-322.59 306.31,-328.18"/>
</g>
<!-- 4 -->
<g id="node5" class="node">
<title>4</title>
<ellipse fill="none" stroke="black" cx="408.78" cy="-458.8" rx="18" ry="18"/>
<text text-anchor="middle" x="408.78" y="-455.1" font-family="helvetica" font-size="14.00">4</text>
</g>
<!-- 3&#45;&gt;4 -->
<g id="edge4" class="edge">
<title>3&#45;&gt;4</title>
<path fill="none" stroke="black" d="M342.67,-355.66C345.74,-359.84 349.05,-364.46 351.98,-368.8 366.85,-390.83 382.72,-416.68 393.72,-435.01"/>
<polygon fill="black" stroke="black" points="390.72,-436.81 398.85,-443.6 396.73,-433.22 390.72,-436.81"/>
</g>
<!-- 5 -->
<g id="node6" class="node">
<title>5</title>
<ellipse fill="none" stroke="black" cx="486.38" cy="-515.8" rx="18" ry="18"/>
<text text-anchor="middle" x="486.38" y="-512.1" font-family="helvetica" font-size="14.00">5</text>
</g>
<!-- 4&#45;&gt;5 -->
<g id="edge5" class="edge">
<title>4&#45;&gt;5</title>
<path fill="none" stroke="black" d="M423.65,-469.25C434.73,-477.61 450.47,-489.48 463.29,-499.14"/>
<polygon fill="black" stroke="black" points="461.51,-502.18 471.6,-505.41 465.72,-496.59 461.51,-502.18"/>
</g>
<!-- 6 -->
<g id="node7" class="node">
<title>6</title>
<ellipse fill="none" stroke="black" cx="563.97" cy="-602.8" rx="18" ry="18"/>
<text text-anchor="middle" x="563.97" y="-599.1" font-family="helvetica" font-size="14.00">6</text>
</g>
<!-- 5&#45;&gt;6 -->
<g id="edge6" class="edge">
<title>5&#45;&gt;6</title>
<path fill="none" stroke="black" d="M498.86,-529.01C510.96,-542.94 530.2,-565.08 544.45,-581.48"/>
<polygon fill="black" stroke="black" points="542.18,-584.21 551.38,-589.46 547.47,-579.62 542.18,-584.21"/>
</g>
<!-- 7 -->
<g id="node8" class="node">
<title>7</title>
<ellipse fill="none" stroke="black" cx="638.77" cy="-689.8" rx="18" ry="18"/>
<text text-anchor="middle" x="638.77" y="-686.1" font-family="helvetica" font-size="14.00">7</text>
</g>
<!-- 6&#45;&gt;7 -->
<g id="edge7" class="edge">
<title>6&#45;&gt;7</title>
<path fill="none" stroke="black" d="M576.35,-616.39C587.99,-630.31 606.26,-652.15 619.85,-668.39"/>
<polygon fill="black" stroke="black" points="617.37,-670.88 626.48,-676.3 622.74,-666.38 617.37,-670.88"/>
</g>
<!-- &#45;1 -->
<g id="node9" class="node">
<title>&#45;1</title>
<ellipse fill="#ffdddd" stroke="black" cx="711.62" cy="-689.8" rx="18.7" ry="18.7"/>
<text text-anchor="middle" x="711.62" y="-686.1" font-family="helvetica" font-size="14.00">&#45;1</text>
</g>
<!-- 7&#45;&gt;&#45;1 -->
<g id="edge8" class="edge">
<title>7&#45;&gt;&#45;1</title>
<path fill="none" stroke="black" d="M656.92,-689.8C664.61,-689.8 673.87,-689.8 682.53,-689.8"/>
<polygon fill="black" stroke="black" points="682.64,-693.3 692.64,-689.8 682.64,-686.3 682.64,-693.3"/>
</g>
<!-- 8 -->
<g id="node10" class="node">
<title>8</title>
<ellipse fill="none" stroke="black" cx="563.97" cy="-776.8" rx="18" ry="18"/>
<text text-anchor="middle" x="563.97" y="-773.1" font-family="helvetica" font-size="14.00">8</text>
</g>
<!-- 8&#45;&gt;7 -->
<g id="edge9" class="edge">
<title>8&#45;&gt;7</title>
<path fill="none" stroke="black" d="M576.35,-763.2C587.99,-749.29 606.26,-727.45 619.85,-711.21"/>
<polygon fill="black" stroke="black" points="622.74,-713.21 626.48,-703.3 617.37,-708.72 622.74,-713.21"/>
</g>
<!-- 9 -->
<g id="node11" class="node">
<title>9</title>
<ellipse fill="none" stroke="black" cx="486.38" cy="-689.8" rx="18" ry="18"/>
<text text-anchor="middle" x="486.38" y="-686.1" font-family="helvetica" font-size="14.00">9</text>
</g>
<!-- 9&#45;&gt;6 -->
<g id="edge10" class="edge">
<title>9&#45;&gt;6</title>
<path fill="none" stroke="black" d="M498.86,-676.58C510.96,-662.66 530.2,-640.52 544.45,-624.11"/>
<polygon fill="black" stroke="black" points="547.47,-625.98 551.38,-616.14 542.18,-621.39 547.47,-625.98"/>
</g>
<!-- 10 -->
<g id="node12" class="node">
<title>10</title>
<ellipse fill="none" stroke="black" cx="408.78" cy="-575.8" rx="20.6" ry="20.6"/>
<text text-anchor="middle" x="408.78" y="-572.1" font-family="helvetica" font-size="14.00">10</text>
</g>
<!-- 10&#45;&gt;5 -->
<g id="edge11" class="edge">
<title>10&#45;&gt;5</title>
<path fill="none" stroke="black" d="M425.81,-563.07C436.94,-554.24 451.89,-542.38 464.02,-532.75"/>
<polygon fill="black" stroke="black" points="466.24,-535.46 471.89,-526.5 461.88,-529.97 466.24,-535.46"/>
</g>
<!-- 11 -->
<g id="node13" class="node">
<title>11</title>
<ellipse fill="none" stroke="black" cx="331.18" cy="-578.8" rx="20.6" ry="20.6"/>
<text text-anchor="middle" x="331.18" y="-575.1" font-family="helvetica" font-size="14.00">11</text>
</g>
<!-- 11&#45;&gt;4 -->
<g id="edge12" class="edge">
<title>11&#45;&gt;4</title>
<path fill="none" stroke="black" d="M343.68,-561.79C346.45,-557.58 349.37,-553.05 351.98,-548.8 368.87,-521.33 370.42,-512.85 387.98,-485.8 389.05,-484.15 390.18,-482.47 391.34,-480.79"/>
<polygon fill="black" stroke="black" points="394.23,-482.77 397.2,-472.6 388.53,-478.7 394.23,-482.77"/>
</g>
<!-- 12 -->
<g id="node14" class="node">
<title>12</title>
<ellipse fill="none" stroke="black" cx="253.59" cy="-401.8" rx="20.6" ry="20.6"/>
<text text-anchor="middle" x="253.59" y="-398.1" font-family="helvetica" font-size="14.00">12</text>
</g>
<!-- 12&#45;&gt;3 -->
<g id="edge13" class="edge">
<title>12&#45;&gt;3</title>
<path fill="none" stroke="black" d="M270.62,-389.07C281.75,-380.24 296.69,-368.38 308.83,-358.75"/>
<polygon fill="black" stroke="black" points="311.04,-361.46 316.7,-352.5 306.69,-355.97 311.04,-361.46"/>
</g>
<!-- 13 -->
<g id="node15" class="node">
<title>13</title>
<ellipse fill="none" stroke="black" cx="175.99" cy="-374.8" rx="20.6" ry="20.6"/>
<text text-anchor="middle" x="175.99" y="-371.1" font-family="helvetica" font-size="14.00">13</text>
</g>
<!-- 13&#45;&gt;2 -->
<g id="edge14" class="edge">
<title>13&#45;&gt;2</title>
<path fill="none" stroke="black" d="M190.16,-359.12C202.48,-344.45 220.98,-322.43 234.65,-306.16"/>
<polygon fill="black" stroke="black" points="237.54,-308.15 241.3,-298.24 232.18,-303.65 237.54,-308.15"/>
</g>
<!-- 14 -->
<g id="node16" class="node">
<title>14</title>
<ellipse fill="none" stroke="black" cx="98.39" cy="-287.8" rx="20.6" ry="20.6"/>
<text text-anchor="middle" x="98.39" y="-284.1" font-family="helvetica" font-size="14.00">14</text>
</g>
<!-- 14&#45;&gt;1 -->
<g id="edge15" class="edge">
<title>14&#45;&gt;1</title>
<path fill="none" stroke="black" d="M112.56,-272.12C124.88,-257.45 143.39,-235.43 157.05,-219.16"/>
<polygon fill="black" stroke="black" points="159.95,-221.15 163.7,-211.24 154.59,-216.65 159.95,-221.15"/>
</g>
<!-- 15 -->
<g id="node17" class="node">
<title>15</title>
<ellipse fill="none" stroke="black" cx="20.8" cy="-200.8" rx="20.6" ry="20.6"/>
<text text-anchor="middle" x="20.8" y="-197.1" font-family="helvetica" font-size="14.00">15</text>
</g>
<!-- 15&#45;&gt;0 -->
<g id="edge16" class="edge">
<title>15&#45;&gt;0</title>
<path fill="none" stroke="black" d="M34.97,-185.12C47.29,-170.45 65.79,-148.43 79.46,-132.16"/>
<polygon fill="black" stroke="black" points="82.35,-134.15 86.1,-124.24 76.99,-129.65 82.35,-134.15"/>
</g>
<!-- 16 -->
<g id="node18" class="node">
<title>16</title>
<ellipse fill="none" stroke="black" cx="20.8" cy="-140.8" rx="20.6" ry="20.6"/>
<text text-anchor="middle" x="20.8" y="-137.1" font-family="helvetica" font-size="14.00">16</text>
</g>
<!-- 16&#45;&gt;0 -->
<g id="edge17" class="edge">
<title>16&#45;&gt;0</title>
<path fill="none" stroke="black" d="M40.48,-133.38C50.03,-129.6 61.78,-124.93 72.11,-120.83"/>
<polygon fill="black" stroke="black" points="73.47,-124.06 81.48,-117.11 70.89,-117.55 73.47,-124.06"/>
</g>
<!-- 17 -->
<g id="node19" class="node">
<title>17</title>
<ellipse fill="none" stroke="black" cx="98.39" cy="-227.8" rx="20.6" ry="20.6"/>
<text text-anchor="middle" x="98.39" y="-224.1" font-family="helvetica" font-size="14.00">17</text>
</g>
<!-- 17&#45;&gt;1 -->
<g id="edge18" class="edge">
<title>17&#45;&gt;1</title>
<path fill="none" stroke="black" d="M118.08,-220.38C127.62,-216.6 139.37,-211.93 149.71,-207.83"/>
<polygon fill="black" stroke="black" points="151.07,-211.06 159.07,-204.11 148.49,-204.55 151.07,-211.06"/>
</g>
<!-- 18 -->
<g id="node20" class="node">
<title>18</title>
<ellipse fill="none" stroke="black" cx="175.99" cy="-314.8" rx="20.6" ry="20.6"/>
<text text-anchor="middle" x="175.99" y="-311.1" font-family="helvetica" font-size="14.00">18</text>
</g>
<!-- 18&#45;&gt;2 -->
<g id="edge19" class="edge">
<title>18&#45;&gt;2</title>
<path fill="none" stroke="black" d="M195.68,-307.38C205.22,-303.6 216.97,-298.93 227.31,-294.83"/>
<polygon fill="black" stroke="black" points="228.67,-298.06 236.67,-291.11 226.08,-291.55 228.67,-298.06"/>
</g>
<!-- 19 -->
<g id="node21" class="node">
<title>19</title>
<ellipse fill="none" stroke="black" cx="20.8" cy="-80.8" rx="20.6" ry="20.6"/>
<text text-anchor="middle" x="20.8" y="-77.1" font-family="helvetica" font-size="14.00">19</text>
</g>
<!-- 19&#45;&gt;0 -->
<g id="edge20" class="edge">
<title>19&#45;&gt;0</title>
<path fill="none" stroke="black" d="M40.48,-88.21C50.03,-92 61.78,-96.66 72.11,-100.77"/>
<polygon fill="black" stroke="black" points="70.89,-104.05 81.48,-104.48 73.47,-97.54 70.89,-104.05"/>
</g>
<!-- 20 -->
<g id="node22" class="node">
<title>20</title>
<ellipse fill="none" stroke="black" cx="331.18" cy="-518.8" rx="20.6" ry="20.6"/>
<text text-anchor="middle" x="331.18" y="-515.1" font-family="helvetica" font-size="14.00">20</text>
</g>
<!-- 20&#45;&gt;4 -->
<g id="edge21" class="edge">
<title>20&#45;&gt;4</title>
<path fill="none" stroke="black" d="M348.22,-506.07C359.34,-497.24 374.29,-485.38 386.43,-475.75"/>
<polygon fill="black" stroke="black" points="388.64,-478.46 394.3,-469.5 384.29,-472.97 388.64,-478.46"/>
</g>
<!-- 21 -->
<g id="node23" class="node">
<title>21</title>
<ellipse fill="none" stroke="black" cx="331.18" cy="-458.8" rx="20.6" ry="20.6"/>
<text text-anchor="middle" x="331.18" y="-455.1" font-family="helvetica" font-size="14.00">21</text>
</g>
<!-- 21&#45;&gt;4 -->
<g id="edge22" class="edge">
<title>21&#45;&gt;4</title>
<path fill="none" stroke="black" d="M352.05,-458.8C360.69,-458.8 370.97,-458.8 380.32,-458.8"/>
<polygon fill="black" stroke="black" points="380.37,-462.3 390.37,-458.8 380.37,-455.3 380.37,-462.3"/>
</g>
<!-- 22 -->
<g id="node24" class="node">
<title>22</title>
<ellipse fill="none" stroke="black" cx="486.38" cy="-632.8" rx="20.6" ry="20.6"/>
<text text-anchor="middle" x="486.38" y="-629.1" font-family="helvetica" font-size="14.00">22</text>
</g>
<!-- 22&#45;&gt;6 -->
<g id="edge23" class="edge">
<title>22&#45;&gt;6</title>
<path fill="none" stroke="black" d="M506.06,-625.38C515.61,-621.6 527.35,-616.93 537.69,-612.83"/>
<polygon fill="black" stroke="black" points="539.05,-616.06 547.06,-609.11 536.47,-609.55 539.05,-616.06"/>
</g>
<!-- 23 -->
<g id="node25" class="node">
<title>23</title>
<ellipse fill="none" stroke="black" cx="563.97" cy="-719.8" rx="20.6" ry="20.6"/>
<text text-anchor="middle" x="563.97" y="-716.1" font-family="helvetica" font-size="14.00">23</text>
</g>
<!-- 23&#45;&gt;7 -->
<g id="edge24" class="edge">
<title>23&#45;&gt;7</title>
<path fill="none" stroke="black" d="M583.72,-712.07C592.47,-708.46 603.03,-704.12 612.48,-700.22"/>
<polygon fill="black" stroke="black" points="613.89,-703.43 621.8,-696.38 611.22,-696.95 613.89,-703.43"/>
</g>
<!-- 24 -->
<g id="node26" class="node">
<title>24</title>
<ellipse fill="none" stroke="black" cx="20.8" cy="-20.8" rx="20.6" ry="20.6"/>
<text text-anchor="middle" x="20.8" y="-17.1" font-family="helvetica" font-size="14.00">24</text>
</g>
<!-- 24&#45;&gt;0 -->
<g id="edge25" class="edge">
<title>24&#45;&gt;0</title>
<path fill="none" stroke="black" d="M34.97,-36.47C47.29,-51.14 65.79,-73.17 79.46,-89.44"/>
<polygon fill="black" stroke="black" points="76.99,-91.95 86.1,-97.35 82.35,-87.45 76.99,-91.95"/>
</g>
<!-- 25 -->
<g id="node27" class="node">
<title>25</title>
<ellipse fill="none" stroke="black" cx="98.39" cy="-167.8" rx="20.6" ry="20.6"/>
<text text-anchor="middle" x="98.39" y="-164.1" font-family="helvetica" font-size="14.00">25</text>
</g>
<!-- 25&#45;&gt;1 -->
<g id="edge26" class="edge">
<title>25&#45;&gt;1</title>
<path fill="none" stroke="black" d="M118.08,-175.21C127.62,-179 139.37,-183.66 149.71,-187.77"/>
<polygon fill="black" stroke="black" points="148.49,-191.05 159.07,-191.48 151.07,-184.54 148.49,-191.05"/>
</g>
<!-- 26 -->
<g id="node28" class="node">
<title>26</title>
<ellipse fill="none" stroke="black" cx="175.99" cy="-254.8" rx="20.6" ry="20.6"/>
<text text-anchor="middle" x="175.99" y="-251.1" font-family="helvetica" font-size="14.00">26</text>
</g>
<!-- 26&#45;&gt;2 -->
<g id="edge27" class="edge">
<title>26&#45;&gt;2</title>
<path fill="none" stroke="black" d="M195.68,-262.21C205.22,-266 216.97,-270.66 227.31,-274.77"/>
<polygon fill="black" stroke="black" points="226.08,-278.05 236.67,-278.48 228.67,-271.54 226.08,-278.05"/>
</g>
<!-- 27 -->
<g id="node29" class="node">
<title>27</title>
<ellipse fill="none" stroke="black" cx="253.59" cy="-341.8" rx="20.6" ry="20.6"/>
<text text-anchor="middle" x="253.59" y="-338.1" font-family="helvetica" font-size="14.00">27</text>
</g>
<!-- 27&#45;&gt;3 -->
<g id="edge28" class="edge">
<title>27&#45;&gt;3</title>
<path fill="none" stroke="black" d="M274.45,-341.8C283.09,-341.8 293.37,-341.8 302.73,-341.8"/>
<polygon fill="black" stroke="black" points="302.77,-345.3 312.77,-341.8 302.77,-338.3 302.77,-345.3"/>
</g>
<!-- 28 -->
<g id="node30" class="node">
<title>28</title>
<ellipse fill="none" stroke="black" cx="331.18" cy="-398.8" rx="20.6" ry="20.6"/>
<text text-anchor="middle" x="331.18" y="-395.1" font-family="helvetica" font-size="14.00">28</text>
</g>
<!-- 28&#45;&gt;4 -->
<g id="edge29" class="edge">
<title>28&#45;&gt;4</title>
<path fill="none" stroke="black" d="M348.22,-411.52C359.34,-420.35 374.29,-432.22 386.43,-441.85"/>
<polygon fill="black" stroke="black" points="384.29,-444.62 394.3,-448.1 388.64,-439.14 384.29,-444.62"/>
</g>
<!-- 29 -->
<g id="node31" class="node">
<title>29</title>
<ellipse fill="none" stroke="black" cx="408.78" cy="-515.8" rx="20.6" ry="20.6"/>
<text text-anchor="middle" x="408.78" y="-512.1" font-family="helvetica" font-size="14.00">29</text>
</g>
<!-- 29&#45;&gt;5 -->
<g id="edge30" class="edge">
<title>29&#45;&gt;5</title>
<path fill="none" stroke="black" d="M429.64,-515.8C438.29,-515.8 448.56,-515.8 457.92,-515.8"/>
<polygon fill="black" stroke="black" points="457.96,-519.3 467.96,-515.8 457.96,-512.3 457.96,-519.3"/>
</g>
<!-- 30 -->
<g id="node32" class="node">
<title>30</title>
<ellipse fill="none" stroke="black" cx="486.38" cy="-572.8" rx="20.6" ry="20.6"/>
<text text-anchor="middle" x="486.38" y="-569.1" font-family="helvetica" font-size="14.00">30</text>
</g>
<!-- 30&#45;&gt;6 -->
<g id="edge31" class="edge">
<title>30&#45;&gt;6</title>
<path fill="none" stroke="black" d="M506.06,-580.21C515.61,-584 527.35,-588.66 537.69,-592.77"/>
<polygon fill="black" stroke="black" points="536.47,-596.05 547.06,-596.48 539.05,-589.54 536.47,-596.05"/>
</g>
<!-- 31 -->
<g id="node33" class="node">
<title>31</title>
<ellipse fill="none" stroke="black" cx="563.97" cy="-659.8" rx="20.6" ry="20.6"/>
<text text-anchor="middle" x="563.97" y="-656.1" font-family="helvetica" font-size="14.00">31</text>
</g>
<!-- 31&#45;&gt;7 -->
<g id="edge32" class="edge">
<title>31&#45;&gt;7</title>
<path fill="none" stroke="black" d="M583.72,-667.52C592.47,-671.13 603.03,-675.48 612.48,-679.37"/>
<polygon fill="black" stroke="black" points="611.22,-682.64 621.8,-683.22 613.89,-676.17 611.22,-682.64"/>
</g>
</g>
</svg>
